#N canvas 379 66 807 629 12;
#X obj 128 75 inlet;
#N canvas 253 73 1005 654 interpret 0;
#X obj 51 24 inlet;
#X obj 131 168 f;
#X obj 142 200 select 0 1 2 3 4;
#X obj 55 555 outlet;
#X obj 125 114 t b;
#X obj 370 184 f;
#X obj 381 216 select 0 1 2 3 4;
#X obj 364 130 t b;
#X msg 285 249 NB 0 0 0;
#X text 491 549 bang \, RT \, PT \, state;
#X msg 55 272 NB 0 1 3;
#X msg 78 345 RB 1 0 1;
#X msg 310 307 NB 0 0 4;
#X msg 331 342 NB 0 0 4;
#X obj 165 88 select 1;
#X obj 392 103 select 2;
#X obj 513 127 select 3;
#X msg 17 201 RB 1 0 1;
#X text 166 37 RECORD;
#X text 517 91 CLEAR;
#X text 401 58 play;
#X obj 416 160 r \$0-state;
#X obj 142 143 r \$0-state;
#X msg 299 279 SB 0 1 3;
#X msg 318 385 PB 0 1 3;
#X msg 67 302 OB 1 1 2;
#X obj 769 151 f;
#X obj 780 183 select 0 1 2 3 4;
#X msg 676 164 NB 0 0 0;
#X msg 785 297 NB 0 0 4;
#X obj 787 128 r \$0-state;
#X obj 756 119 t b;
#X msg 736 232 NB 0 0 4;
#X msg 715 204 SB 0 0 4;
#X msg 748 262 NB 0 0 4;
#X obj 745 62 select 5;
#X obj 855 60 select 10;
#X obj 881 150 s changelight;
#X obj 897 102 r \$0-state;
#X obj 883 126 f;
#X msg 27 236 WB 1 1 2;
#X obj 429 137 tgl 15 0 empty empty empty 17 7 0 10 -262144 -1 -1 0
1;
#X msg 562 416 \; \$0-state 0 \; \$0-LENGTH 0 \; \$0-RT 0 \; \$0-PT
0;
#X obj 905 249 tgl 15 0 empty empty empty 17 7 0 10 -262144 -1 -1 0
1;
#X connect 0 0 14 0;
#X connect 0 0 15 0;
#X connect 0 0 16 0;
#X connect 0 0 35 0;
#X connect 0 0 36 0;
#X connect 1 0 2 0;
#X connect 2 0 17 0;
#X connect 2 1 40 0;
#X connect 2 2 10 0;
#X connect 2 3 25 0;
#X connect 2 4 11 0;
#X connect 4 0 1 0;
#X connect 5 0 6 0;
#X connect 6 0 8 0;
#X connect 6 1 23 0;
#X connect 6 2 12 0;
#X connect 6 3 13 0;
#X connect 6 4 24 0;
#X connect 7 0 5 0;
#X connect 8 0 3 0;
#X connect 10 0 3 0;
#X connect 11 0 3 0;
#X connect 12 0 3 0;
#X connect 13 0 3 0;
#X connect 14 0 4 0;
#X connect 15 0 7 0;
#X connect 15 0 41 0;
#X connect 16 0 42 0;
#X connect 17 0 3 0;
#X connect 21 0 5 1;
#X connect 22 0 1 1;
#X connect 23 0 3 0;
#X connect 24 0 3 0;
#X connect 25 0 3 0;
#X connect 26 0 27 0;
#X connect 27 0 28 0;
#X connect 27 1 33 0;
#X connect 27 2 32 0;
#X connect 27 3 34 0;
#X connect 27 4 29 0;
#X connect 28 0 3 0;
#X connect 29 0 3 0;
#X connect 30 0 26 1;
#X connect 31 0 26 0;
#X connect 32 0 3 0;
#X connect 33 0 3 0;
#X connect 34 0 3 0;
#X connect 35 0 31 0;
#X connect 36 0 39 0;
#X connect 36 0 43 0;
#X connect 38 0 39 1;
#X connect 39 0 37 0;
#X connect 40 0 3 0;
#X restore 160 98 pd interpret;
#N canvas 363 66 780 629 playhead 0;
#X text 340 59 playhead;
#X obj 93 304 f;
#X obj 57 277 t b b;
#X obj 52 343 pack 0 f;
#X obj 35 226 r \$0-new_cycle;
#X obj 113 277 r \$0-LENGTH;
#X obj 370 351 s \$0-new_cycle;
#X obj 192 90 r \$0-LENGTH;
#X obj 67 156 pack f f;
#X obj 99 118 expr $f2 - $f1;
#X obj 70 91 t f f;
#X text 358 520 Everything on the playhead happens live;
#X text 348 545 all of the delays happen on the record head;
#X obj 324 287 outlet~;
#X obj 57 54 r \$0-P_LOC;
#X obj 528 394 s MB;
#X obj 469 293 spigot;
#X obj 500 253 r \$0-T0-T;
#X obj 444 125 r CLEAR;
#X msg 405 210 stop;
#X obj 304 148 r \$0-RB;
#X msg 306 179 stop;
#X obj 516 339 delay;
#X obj 572 302 r \$0-BOUT;
#X obj 522 368 f \$1;
#X obj 316 253 tabplay~ \$0-tape;
#X obj 253 152 bng 15 250 50 0 empty empty empty 17 7 0 10 -262144
-1 -1;
#X obj 400 120 r stopper;
#X obj 23 330 tgl 15 0 empty empty empty 17 7 0 10 -262144 -1 -1 0
1;
#X obj 242 369 tgl 15 0 empty empty empty 17 7 0 10 -262144 -1 -1 0
1;
#X connect 1 0 3 1;
#X connect 2 0 3 0;
#X connect 2 1 1 0;
#X connect 3 0 25 0;
#X connect 4 0 2 0;
#X connect 4 0 28 0;
#X connect 5 0 1 1;
#X connect 7 0 9 1;
#X connect 8 0 25 0;
#X connect 9 0 8 1;
#X connect 10 0 8 0;
#X connect 10 1 9 0;
#X connect 14 0 10 0;
#X connect 16 0 22 0;
#X connect 17 0 16 1;
#X connect 18 0 19 0;
#X connect 19 0 25 0;
#X connect 20 0 21 0;
#X connect 21 0 25 0;
#X connect 22 0 24 0;
#X connect 23 0 22 1;
#X connect 24 0 15 0;
#X connect 25 0 13 0;
#X connect 25 1 16 0;
#X connect 25 1 6 0;
#X connect 25 1 29 0;
#X connect 26 0 25 0;
#X connect 27 0 19 0;
#X restore 475 201 pd playhead;
#N canvas 83 66 601 629 feedback 0;
#X obj 276 112 vsl 15 128 0.01 1 1 1 empty empty empty 0 -9 0 10 -262144
-1 -1 12700 1;
#X obj 440 18 inlet;
#X obj 286 308 loadbang;
#X msg 286 337 1;
#X obj 41 510 *~;
#X floatatom 274 250 5 0 0 0 - - -, f 5;
#X obj 155 359 f;
#X obj 116 153 r \$0-state;
#X obj 116 183 select 2;
#X obj 294 371 r LATCOMP;
#X obj 100 278 spigot 0;
#X msg 106 211 1;
#X msg 145 213 0;
#X obj 27 126 inlet~;
#X obj 156 330 t b;
#X obj 108 477 snapshot~;
#X obj 194 448 metro 50;
#X obj 294 460 vsl 15 128 0.01 1 1 1 empty empty empty 0 -9 0 10 -262144
-1 -1 12700 1;
#X obj 305 408 bng 15 250 50 0 empty empty empty 17 7 0 10 -262144
-1 -1;
#X obj 82 389 pack 1 30;
#X msg 202 291 1;
#X obj 85 424 line~;
#X obj 354 310 r clear;
#X obj 208 401 pack 1 5;
#X obj 104 522 r LATCOMP;
#X obj 89 595 outlet~;
#X obj 406 452 delwrite~ \$0-harry 100;
#X obj 102 549 delread4~ \$0-harry 5;
#X obj 421 549 outlet~;
#X connect 0 0 5 0;
#X connect 1 0 0 0;
#X connect 2 0 3 0;
#X connect 3 0 23 0;
#X connect 4 0 26 0;
#X connect 5 0 6 1;
#X connect 5 0 10 0;
#X connect 6 0 19 0;
#X connect 7 0 8 0;
#X connect 8 0 11 0;
#X connect 8 0 14 0;
#X connect 8 1 20 0;
#X connect 8 1 12 0;
#X connect 9 0 23 1;
#X connect 10 0 19 0;
#X connect 11 0 10 1;
#X connect 12 0 10 1;
#X connect 13 0 4 0;
#X connect 14 0 6 0;
#X connect 15 0 17 0;
#X connect 16 0 15 0;
#X connect 18 0 16 0;
#X connect 19 0 21 0;
#X connect 20 0 23 0;
#X connect 21 0 4 1;
#X connect 21 0 15 0;
#X connect 21 0 28 0;
#X connect 22 0 3 0;
#X connect 23 0 21 0;
#X connect 24 0 27 0;
#X connect 27 0 25 0;
#X restore 493 109 pd feedback;
#N canvas 0 377 1068 654 rechead 0;
#X text 544 7 Record Head;
#X obj 426 319 inlet~;
#X msg 569 363 stop;
#X obj 283 275 delay 5 1 msec;
#X obj 380 249 r LATCOMP;
#X obj 284 212 r \$0-new_cycle;
#X msg 157 366 start \$1;
#X obj 125 331 pipe f 5;
#X obj 200 313 r LATCOMP;
#X text 664 55 Everything - commands and audio -- gets delayed.;
#X text 687 80 This helps compensate for latency.;
#X obj 126 280 r \$0-R_LOC;
#X obj 577 331 r CLEAR;
#X obj 490 200 r \$0-RB;
#X msg 491 244 stop;
#X obj 304 399 tabwrite~ \$0-tape;
#X obj 460 151 r stopper;
#X connect 1 0 15 0;
#X connect 2 0 15 0;
#X connect 3 0 15 0;
#X connect 4 0 3 1;
#X connect 5 0 3 0;
#X connect 6 0 15 0;
#X connect 7 0 6 0;
#X connect 8 0 7 1;
#X connect 11 0 7 0;
#X connect 12 0 2 0;
#X connect 13 0 14 0;
#X connect 14 0 15 0;
#X connect 16 0 14 0;
#X restore 439 175 pd rechead;
#N canvas 517 152 450 475 process 0;
#X obj 17 19 inlet;
#X obj 194 53 unpack s f f f;
#X obj 331 90 s \$0-state;
#X obj 4 195 s \$0-RB;
#X obj 62 194 s \$0-SB;
#X obj 167 103 s \$0-RT;
#X obj 234 105 s \$0-PT;
#X obj 293 140 s changelight;
#X obj 115 194 s \$0-PB;
#X obj 169 192 s \$0-OB;
#X obj 163 278 f \$1;
#X obj 189 237 t b f;
#X obj 159 317 pack f f;
#X obj 158 358 s LIGHTLIST;
#X obj 19 79 select RB SB PB OB WB;
#X obj 55 271 r \$0-state;
#X obj 47 326 f \$1;
#X obj 53 358 pack f f;
#X obj 58 395 s TRACK_STATE;
#X obj 67 299 t b f;
#X obj 226 191 s \$0-SB;
#X connect 0 0 1 0;
#X connect 1 0 14 0;
#X connect 1 1 5 0;
#X connect 1 2 6 0;
#X connect 1 3 2 0;
#X connect 1 3 7 0;
#X connect 1 3 11 0;
#X connect 10 0 12 0;
#X connect 11 0 10 0;
#X connect 11 1 12 1;
#X connect 12 0 13 0;
#X connect 14 0 3 0;
#X connect 14 1 4 0;
#X connect 14 2 8 0;
#X connect 14 3 9 0;
#X connect 14 4 20 0;
#X connect 15 0 19 0;
#X connect 16 0 17 0;
#X connect 17 0 18 0;
#X connect 19 0 16 0;
#X connect 19 1 17 1;
#X restore 78 215 pd process;
#X obj 472 65 inlet;
#N canvas 441 284 450 325 cleaner 0;
#X msg 108 75 start \$1;
#X obj 108 47 r \$0-clean;
#X obj 106 190 tabwrite~ \$0-tape;
#X connect 0 0 2 0;
#X connect 1 0 0 0;
#X restore 178 323 pd cleaner;
#X obj 620 121 inlet;
#N canvas 408 66 753 654 test_buttons 0;
#X text 199 -125 test buttons;
#X obj 40 -130 bng 18 250 50 0 empty empty empty 17 7 0 10 -262144
-1 -1;
#X obj 114 -128 bng 19 250 50 0 empty empty empty 17 7 0 10 -262144
-1 -1;
#X obj 39 -75 tgl 15 0 empty empty empty 17 7 0 10 -262144 -1 -1 0
1;
#X obj 121 -76 tgl 15 0 empty empty empty 17 7 0 10 -262144 -1 -1 0
1;
#X obj 175 4 bng 15 250 50 0 empty empty empty 17 7 0 10 -262144 -1
-1;
#X obj 114 -105 s \$0-SB;
#X obj 40 -106 s \$0-RB;
#X obj 57 -59 s \$0-RT;
#X obj 121 -53 s \$0-PT;
#X msg 54 -10 \; \$0-STATE 2;
#X obj 57 -37 select 1;
#X obj 173 39 f \$1;
#X floatatom 219 33 5 0 0 0 - - -, f 5;
#X obj 264 -104 bng 19 250 50 0 empty empty empty 17 7 0 10 -262144
-1 -1;
#X obj 264 -81 s \$0-PB;
#X obj 560 25 r \$0-M-LENGTH;
#X floatatom 563 52 5 0 0 0 - - -, f 5;
#X obj 569 -111 r \$0-START_LOC;
#X floatatom 569 -82 10 0 0 0 - - -, f 10;
#X obj 377 -56 bng 15 250 50 0 empty empty empty 17 7 0 10 -262144
-1 -1;
#X obj 374 -129 r \$1-MB;
#X obj 467 -39 r \$0-BIN;
#X floatatom 417 41 10 0 0 0 - - -, f 10;
#X obj 405 7 f;
#X obj 409 -42 bng 15 250 50 0 empty empty empty 17 7 0 10 -262144
-1 -1;
#X floatatom 105 128 5 0 0 0 - - -, f 5;
#X obj 109 92 r \$0-RT;
#X obj 178 94 r \$0-PT;
#X floatatom 171 133 5 0 0 0 - - -, f 5;
#X obj 57 107 f;
#X obj 41 76 bng 15 250 50 0 empty empty empty 17 7 0 10 -262144 -1
-1;
#X obj 260 125 f;
#X obj 244 94 bng 15 250 50 0 empty empty empty 17 7 0 10 -262144 -1
-1;
#X floatatom 343 127 5 0 0 0 - - -, f 5;
#X obj 339 90 r \$0-BOUT;
#X obj 454 94 r \$0-SAMP_LENGTH;
#X floatatom 453 150 10 0 0 0 - - -, f 10;
#X obj 39 284 r \$0-new_cycle;
#X obj 65 350 bng 15 250 50 0 empty empty empty 17 7 0 10 -262144 -1
-1;
#X obj 214 186 r \$0-LENGTH;
#X floatatom 214 264 20 0 0 0 - - -, f 20;
#X obj 199 222 f;
#X obj 181 185 bng 15 250 50 0 empty empty empty 17 7 0 10 -262144
-1 -1;
#X floatatom 413 266 15 0 0 0 - - -, f 15;
#X obj 398 224 f;
#X obj 544 228 f;
#X floatatom 553 277 5 0 0 0 - - -, f 5;
#X obj 550 191 r \$0-state;
#X obj 51 185 r LATCOMP;
#X floatatom 44 252 5 0 0 0 - - -, f 5;
#X obj 39 216 f;
#X obj 396 197 r LL0;
#X obj 375 318 r \$0-FO-T;
#X obj 479 308 r \$0-FI-T;
#X obj 215 329 r \$1-FADING_OUT;
#X floatatom 224 390 5 0 0 0 - - -, f 5;
#X floatatom 386 379 5 0 0 0 - - -, f 5;
#X floatatom 481 378 5 0 0 0 - - -, f 5;
#X obj 220 -37 r \$0-SB;
#X obj 250 6 tgl 15 0 empty empty empty 17 7 0 10 -262144 -1 -1 0 1
;
#X connect 1 0 7 0;
#X connect 2 0 6 0;
#X connect 3 0 8 0;
#X connect 3 0 11 0;
#X connect 4 0 9 0;
#X connect 5 0 12 0;
#X connect 11 0 10 0;
#X connect 12 0 13 0;
#X connect 14 0 15 0;
#X connect 16 0 17 0;
#X connect 18 0 19 0;
#X connect 21 0 20 0;
#X connect 22 0 23 0;
#X connect 22 0 24 1;
#X connect 24 0 23 0;
#X connect 25 0 24 0;
#X connect 27 0 26 0;
#X connect 27 0 30 1;
#X connect 28 0 29 0;
#X connect 28 0 32 1;
#X connect 30 0 26 0;
#X connect 31 0 30 0;
#X connect 32 0 29 0;
#X connect 33 0 32 0;
#X connect 35 0 34 0;
#X connect 36 0 37 0;
#X connect 38 0 39 0;
#X connect 40 0 42 1;
#X connect 40 0 41 0;
#X connect 42 0 41 0;
#X connect 43 0 42 0;
#X connect 43 0 45 0;
#X connect 43 0 46 0;
#X connect 43 0 51 0;
#X connect 45 0 44 0;
#X connect 46 0 47 0;
#X connect 48 0 46 1;
#X connect 48 0 47 0;
#X connect 49 0 51 1;
#X connect 51 0 50 0;
#X connect 52 0 45 1;
#X connect 52 0 45 0;
#X connect 53 0 57 0;
#X connect 54 0 58 0;
#X connect 55 0 56 0;
#X connect 59 0 60 0;
#X restore 565 462 pd test_buttons;
#X text 490 -4 AUDIO;
#X text 52 49 rec / play / change < or >;
#X text 213 219 MEMORY & FILE MANAGMENT;
#X text 76 16 USER COMMANDS;
#N canvas 431 124 617 654 RECORD_START 0;
#X obj 340 354 timer;
#X obj 56 0 r \$0-RB;
#X text 184 -1 Start first record;
#X msg 105 378 0;
#X text 311 89 switches the array in use back and forth;
#X obj 193 92 s \$0-clean;
#X msg 191 59 0;
#X obj 328 321 r \$1-MB;
#X obj 340 281 t b b;
#X obj 69 288 spigot;
#X obj 331 242 spigot;
#X obj 349 419 s \$0-START_LOC;
#X obj 104 433 s \$0-START_LOC;
#X obj 108 258 r \$0-T0-T;
#X obj 371 210 r \$0-T1P-T;
#X obj 112 29 t b b b;
#X obj 35 491 s EMPTY_ON_NEW;
#X connect 0 0 11 0;
#X connect 1 0 15 0;
#X connect 3 0 12 0;
#X connect 6 0 5 0;
#X connect 7 0 0 0;
#X connect 8 1 0 1;
#X connect 9 0 3 0;
#X connect 9 0 16 0;
#X connect 10 0 8 0;
#X connect 13 0 9 1;
#X connect 14 0 10 1;
#X connect 15 0 9 0;
#X connect 15 1 10 0;
#X connect 15 2 6 0;
#X restore 269 268 pd RECORD_START;
#N canvas 299 66 902 629 PLAY_PUNCHIN 0;
#X obj 195 28 r \$0-PB;
#X obj 161 103 timer;
#X obj 238 191 *;
#X obj 256 175 samplerate~;
#X obj 236 215 / 1000;
#X obj 238 240 intoblocks;
#X obj 224 264 f;
#X obj 47 57 r \$0-new_cycle;
#X obj 237 363 r \$0-LENGTH;
#X obj 76 470 s \$0-BIN;
#X obj 77 427 expr $f2 - $f1;
#X obj 228 400 expr $f1 / 48;
#X obj 96 339 s \$0-BOUT;
#X obj 223 308 expr $f1 / 48;
#X text 5 551 How much do you delay START by;
#X text 67 523 you want to hear 0;
#X text 14 579 delay it until it matches where you are;
#X obj 221 97 spigot;
#X obj 283 125 tgl 15 0 empty empty empty 17 7 0 10 -262144 -1 -1 1
1;
#X obj 274 68 r \$0-T0-T;
#X floatatom 344 381 5 0 0 0 - - -, f 5;
#X obj 174 142 t b b f b;
#X obj 132 197 f \$1;
#X obj 99 248 s MB;
#X floatatom 108 498 10 0 0 0 - - -, f 10;
#X obj 431 43 r \$0-PB;
#X obj 518 63 r \$0-T1P-T;
#X obj 457 105 spigot;
#X obj 504 157 r LOOP-ID;
#X obj 472 201 f;
#X obj 476 235 * 4;
#X obj 444 330 f;
#X obj 518 330 f;
#X obj 595 334 f;
#X obj 662 328 f;
#X obj 460 268 select 0 1 2 3;
#X obj 539 466 expr $f2 - $f1;
#X obj 698 457 expr $f1 / 48;
#X obj 470 301 r 0-BOUT;
#X obj 537 300 r 4-BOUT;
#X obj 610 302 r 8-BOUT;
#X obj 688 298 r 12-BOUT;
#X obj 466 532 s \$0-BIN;
#X obj 394 436 s \$0-BOUT;
#X obj 78 370 s \$1-BOUT;
#X obj 585 189 bng 15 250 50 0 empty empty empty 17 7 0 10 -262144
-1 -1;
#X obj 708 420 r \$0-LENGTH;
#X obj 431 155 delay 5;
#X obj 430 386 expr $f1 - 5;
#X connect 0 0 17 0;
#X connect 1 0 21 0;
#X connect 2 0 4 0;
#X connect 3 0 2 1;
#X connect 4 0 5 0;
#X connect 5 0 6 1;
#X connect 6 0 13 0;
#X connect 7 0 1 0;
#X connect 8 0 11 0;
#X connect 10 0 9 0;
#X connect 10 0 24 0;
#X connect 11 0 10 1;
#X connect 13 0 12 0;
#X connect 13 0 10 0;
#X connect 13 0 20 0;
#X connect 13 0 44 0;
#X connect 17 0 1 1;
#X connect 19 0 17 1;
#X connect 19 0 18 0;
#X connect 21 0 22 0;
#X connect 21 1 6 0;
#X connect 21 2 2 0;
#X connect 21 3 3 0;
#X connect 22 0 23 0;
#X connect 25 0 27 0;
#X connect 26 0 27 1;
#X connect 27 0 47 0;
#X connect 28 0 29 1;
#X connect 29 0 30 0;
#X connect 30 0 35 0;
#X connect 31 0 36 0;
#X connect 31 0 48 0;
#X connect 32 0 36 0;
#X connect 32 0 48 0;
#X connect 33 0 36 0;
#X connect 33 0 48 0;
#X connect 34 0 36 0;
#X connect 34 0 48 0;
#X connect 35 0 31 0;
#X connect 35 1 32 0;
#X connect 35 2 33 0;
#X connect 35 3 34 0;
#X connect 36 0 42 0;
#X connect 37 0 36 1;
#X connect 38 0 31 1;
#X connect 39 0 32 1;
#X connect 40 0 33 1;
#X connect 41 0 34 1;
#X connect 45 0 32 0;
#X connect 46 0 37 0;
#X connect 47 0 29 0;
#X connect 48 0 43 0;
#X restore 265 357 pd PLAY_PUNCHIN;
#N canvas 336 66 1146 629 output_vol_pan 0;
#X obj 125 188 *~;
#X obj 255 457 inlet;
#X obj 373 555 *~;
#X obj 67 543 *~;
#X obj 28 -1 inlet~;
#X obj 244 52 inlet;
#X obj 202 40 vsl 15 128 0.01 1 1 1 empty empty empty 0 -9 0 10 -262144
-1 -1 12700 1;
#X obj 152 496 expr 1 - $f1;
#X text 249 314 FADE IN / OUT;
#X text 218 442 PAN;
#X obj 712 267 r \$0-QFADE;
#X obj 238 111 pack 0 100;
#X obj 372 499 pack 0 100;
#X obj 125 521 pack 0 100;
#X obj 639 209 loadbang;
#X msg 639 239 1;
#X obj 238 139 line~;
#X obj 407 332 line~;
#X obj 389 523 line~;
#X obj 125 549 line~;
#X obj 33 597 throw~ L;
#X obj 377 584 throw~ R;
#X obj 119 278 *~;
#X obj 623 67 select 0;
#X obj 403 74 delay 5;
#X obj 476 33 r LATCOMP;
#X msg 361 110 1;
#X obj 469 65 expr $f1 + 40;
#X obj 512 147 pack 0 7;
#X obj 377 144 pack 1 100;
#X obj 379 33 select 1;
#X obj 380 1 r \$0-PT;
#X obj 624 35 r \$0-PT;
#X obj 74 130 *~;
#X obj 292 184 line~;
#X obj 904 312 r \$0-FI-B;
#X obj 935 373 pack 1 5;
#X obj 927 203 r FADE_TIME;
#X obj 751 312 r \$0-FO-B;
#X obj 795 378 pack 0 5;
#X obj 813 287 spigot;
#X obj 910 231 t b f;
#X obj 853 258 r \$0-FO-T;
#X obj 966 233 t b f;
#X obj 985 287 spigot;
#X obj 1025 258 r \$0-FI-T;
#X obj 652 324 pack f 1;
#X obj 761 348 delay 5;
#X obj 910 347 delay 5;
#X obj 884 424 r CURRENT_TRACK;
#X obj 884 451 == \$1;
#X obj 845 479 spigot;
#X obj 943 490 spigot;
#X obj 841 518 t b;
#X obj 940 524 t b;
#X obj 829 556 s RFO;
#X obj 943 564 s RFI;
#X obj 331 248 metro 100;
#X obj 380 195 bng 15 250 50 0 empty empty empty 17 7 0 10 -262144
-1 -1;
#X obj 418 276 snapshot~;
#X obj 448 227 hsl 128 15 0 1 0 0 empty empty empty -2 -8 0 10 -262144
-1 -1 0 1;
#X floatatom 324 40 5 0 0 0 - - -, f 5;
#X obj 398 103 spigot;
#X connect 0 0 22 0;
#X connect 1 0 7 0;
#X connect 1 0 12 0;
#X connect 2 0 21 0;
#X connect 3 0 20 0;
#X connect 4 0 33 0;
#X connect 5 0 6 0;
#X connect 6 0 11 0;
#X connect 7 0 13 0;
#X connect 10 0 46 0;
#X connect 11 0 16 0;
#X connect 12 0 18 0;
#X connect 13 0 19 0;
#X connect 14 0 15 0;
#X connect 15 0 46 0;
#X connect 16 0 0 1;
#X connect 17 0 22 1;
#X connect 18 0 2 1;
#X connect 19 0 3 1;
#X connect 22 0 3 0;
#X connect 22 0 2 0;
#X connect 23 0 28 0;
#X connect 24 0 62 0;
#X connect 25 0 27 0;
#X connect 26 0 29 0;
#X connect 27 0 24 1;
#X connect 28 0 34 0;
#X connect 29 0 34 0;
#X connect 30 0 24 0;
#X connect 31 0 30 0;
#X connect 31 0 61 0;
#X connect 31 0 62 1;
#X connect 32 0 23 0;
#X connect 33 0 0 0;
#X connect 34 0 33 1;
#X connect 34 0 59 0;
#X connect 35 0 48 0;
#X connect 35 0 52 0;
#X connect 36 0 17 0;
#X connect 37 0 41 0;
#X connect 37 0 43 0;
#X connect 38 0 47 0;
#X connect 38 0 51 0;
#X connect 39 0 17 0;
#X connect 40 0 39 0;
#X connect 40 0 51 0;
#X connect 41 0 40 0;
#X connect 41 1 39 1;
#X connect 42 0 40 1;
#X connect 43 0 44 0;
#X connect 43 1 36 1;
#X connect 44 0 36 0;
#X connect 44 0 52 0;
#X connect 45 0 44 1;
#X connect 46 0 17 0;
#X connect 47 0 39 0;
#X connect 48 0 36 0;
#X connect 49 0 50 0;
#X connect 50 0 51 1;
#X connect 50 0 52 1;
#X connect 51 0 53 0;
#X connect 52 0 54 0;
#X connect 53 0 55 0;
#X connect 54 0 56 0;
#X connect 57 0 59 0;
#X connect 58 0 57 0;
#X connect 59 0 60 0;
#X connect 62 0 26 0;
#X restore 527 276 pd output_vol_pan;
#N canvas 734 108 373 603 change_record 0;
#X obj 172 226 f;
#X obj 183 258 select 0 1 2 3 4;
#X obj 177 186 r \$0-state;
#X obj 136 163 t b;
#X msg 96 330 NB 1 1 2;
#X msg 36 262 RB 1 0 1;
#X msg 130 378 OB 1 1 2;
#X obj 278 6 inlet;
#X obj 46 475 outlet;
#X obj 275 38 select 4;
#X msg 69 295 NB 1 0 1;
#X text 135 511 bang \, RT \, PT \, state;
#X msg 209 405 OB 1 1 2;
#X connect 0 0 1 0;
#X connect 1 0 5 0;
#X connect 1 1 10 0;
#X connect 1 2 4 0;
#X connect 1 3 6 0;
#X connect 1 4 12 0;
#X connect 2 0 0 1;
#X connect 3 0 0 0;
#X connect 4 0 8 0;
#X connect 5 0 8 0;
#X connect 6 0 8 0;
#X connect 7 0 9 0;
#X connect 9 0 3 0;
#X connect 10 0 8 0;
#X connect 12 0 8 0;
#X restore 160 123 pd change_record;
#N canvas 45 117 1235 578 change_from 0;
#X obj 278 6 inlet;
#X obj 599 465 outlet;
#X obj 489 219 f;
#X obj 500 251 select 0 1 2 3 4;
#X obj 494 179 r \$0-state;
#X obj 453 156 t b;
#X obj 275 38 select 6;
#X msg 353 255 NB 0 0 0;
#X msg 462 388 NB 0 0 4;
#X text 259 410 bang \, RT \, PT \, state;
#X msg 413 323 NB 0 1 3;
#X msg 425 353 NB 0 1 3;
#X msg 392 296 SB 0 1 3;
#X connect 0 0 6 0;
#X connect 2 0 3 0;
#X connect 3 0 7 0;
#X connect 3 1 12 0;
#X connect 3 2 10 0;
#X connect 3 3 11 0;
#X connect 3 4 8 0;
#X connect 4 0 2 1;
#X connect 5 0 2 0;
#X connect 6 0 5 0;
#X connect 7 0 1 0;
#X connect 8 0 1 0;
#X connect 10 0 1 0;
#X connect 11 0 1 0;
#X connect 12 0 1 0;
#X restore 157 150 pd change_from;
#N canvas 28 142 1235 553 change_to 0;
#X obj 29 10 inlet;
#X obj 206 493 outlet;
#X obj 240 223 f;
#X obj 251 255 select 0 1 2 3 4;
#X obj 245 183 r \$0-state;
#X obj 204 160 t b;
#X msg 164 327 NB 1 1 2;
#X obj 26 42 select 7;
#X msg 104 259 NB 0 0 0;
#X text 10 502 bang \, RT \, PT \, state;
#X msg 143 300 NB 1 0 1;
#X msg 176 357 NB 0 1 3;
#X msg 213 392 NB 0 0 4;
#X connect 0 0 7 0;
#X connect 2 0 3 0;
#X connect 3 0 8 0;
#X connect 3 1 10 0;
#X connect 3 2 6 0;
#X connect 3 3 11 0;
#X connect 3 4 12 0;
#X connect 4 0 2 1;
#X connect 5 0 2 0;
#X connect 6 0 1 0;
#X connect 7 0 5 0;
#X connect 8 0 1 0;
#X connect 10 0 1 0;
#X connect 11 0 1 0;
#X connect 12 0 1 0;
#X restore 154 175 pd change_to;
#X text 461 39 feedback;
#X obj 598 63 inlet;
#X text 596 31 volume;
#X text 625 94 pan;
#N canvas 10 110 1265 642 loop_coms 0;
#X obj 257 -74 inlet;
#X obj 156 114 f;
#X obj 167 146 select 0 1 2 3 4;
#X obj 161 74 r \$0-state;
#X obj 120 51 t b;
#X obj 479 403 outlet;
#X obj 207 -13 select 25;
#X msg 20 150 NB 0 0 0;
#X text 293 394 bang \, RT \, PT \, state;
#X msg 52 183 SB 0 1 3;
#X msg 80 218 NB 0 1 3;
#X msg 114 266 NB 0 1 3;
#X obj 477 71 f;
#X obj 488 103 select 0 1 2 3 4;
#X obj 482 31 r \$0-state;
#X obj 441 8 t b;
#X msg 341 107 NB 0 0 0;
#X obj 761 86 f;
#X obj 772 118 select 0 1 2 3 4;
#X obj 766 46 r \$0-state;
#X obj 725 23 t b;
#X msg 625 122 NB 0 0 0;
#X obj 527 -56 select 26;
#X obj 812 -41 select 27;
#X text 188 -37 STOP RECORDING;
#X text 431 -25 STOP PLAYING;
#X text 735 -10 START PLAYING;
#X msg 373 140 SB 0 0 4;
#X msg 401 175 NB 0 0 4;
#X msg 435 223 NB 0 0 4;
#X msg 514 250 NB 0 0 4;
#X msg 193 293 NB 0 0 4;
#X msg 685 190 NB 1 1 2;
#X msg 798 265 PB 0 1 3;
#X msg 657 157 NB 1 1 2;
#X msg 720 238 NB 0 1 3;
#X obj 1012 173 f;
#X obj 1023 205 select 0 1 2 3 4;
#X obj 1017 133 r \$0-state;
#X obj 976 110 t b;
#X msg 876 209 NB 0 0 0;
#X obj 1063 46 select 28;
#X text 1066 79 EMPTY;
#X msg 908 244 NB 0 0 0;
#X msg 936 277 NB 0 0 0;
#X msg 971 325 NB 0 0 0;
#X msg 1049 352 NB 0 0 0;
#X connect 0 0 6 0;
#X connect 0 0 22 0;
#X connect 0 0 23 0;
#X connect 0 0 41 0;
#X connect 1 0 2 0;
#X connect 2 0 7 0;
#X connect 2 1 9 0;
#X connect 2 2 10 0;
#X connect 2 3 11 0;
#X connect 2 4 31 0;
#X connect 3 0 1 1;
#X connect 4 0 1 0;
#X connect 6 0 4 0;
#X connect 7 0 5 0;
#X connect 9 0 5 0;
#X connect 10 0 5 0;
#X connect 11 0 5 0;
#X connect 12 0 13 0;
#X connect 13 0 16 0;
#X connect 13 1 27 0;
#X connect 13 2 28 0;
#X connect 13 3 29 0;
#X connect 13 4 30 0;
#X connect 14 0 12 1;
#X connect 15 0 12 0;
#X connect 16 0 5 0;
#X connect 17 0 18 0;
#X connect 18 0 21 0;
#X connect 18 1 34 0;
#X connect 18 2 32 0;
#X connect 18 3 35 0;
#X connect 18 4 33 0;
#X connect 19 0 17 1;
#X connect 20 0 17 0;
#X connect 21 0 5 0;
#X connect 22 0 15 0;
#X connect 23 0 20 0;
#X connect 27 0 5 0;
#X connect 28 0 5 0;
#X connect 29 0 5 0;
#X connect 30 0 5 0;
#X connect 31 0 5 0;
#X connect 32 0 5 0;
#X connect 33 0 5 0;
#X connect 34 0 5 0;
#X connect 35 0 5 0;
#X connect 36 0 37 0;
#X connect 37 0 40 0;
#X connect 37 1 43 0;
#X connect 37 2 44 0;
#X connect 37 3 45 0;
#X connect 37 4 46 0;
#X connect 38 0 36 1;
#X connect 39 0 36 0;
#X connect 40 0 5 0;
#X connect 41 0 39 0;
#X connect 43 0 5 0;
#X connect 44 0 5 0;
#X connect 45 0 5 0;
#X connect 46 0 5 0;
#X restore 17 106 pd loop_coms;
#N canvas 517 152 450 475 Q1_process 0;
#X obj 17 19 inlet;
#X obj 194 53 unpack s f f f;
#X obj 356 335 s \$0-state;
#X obj 178 157 s \$0-RT;
#X obj 240 157 s \$0-PT;
#X obj 320 365 s changelight;
#X obj 143 329 f \$1;
#X obj 139 368 pack f f;
#X obj 138 409 s LIGHTLIST;
#X obj 335 263 t b f f f;
#X obj 75 108 select QB;
#X text 350 214 always a 3;
#X obj 67 153 s \$0-QB;
#X connect 0 0 1 0;
#X connect 1 0 10 0;
#X connect 1 1 3 0;
#X connect 1 2 4 0;
#X connect 1 3 9 0;
#X connect 6 0 7 0;
#X connect 7 0 8 0;
#X connect 9 0 6 0;
#X connect 9 1 7 1;
#X connect 9 2 5 0;
#X connect 9 3 2 0;
#X connect 10 0 12 0;
#X restore 37 245 pd Q1_process;
#N canvas 29 66 1100 629 mode_com 0;
#X obj 160 -431 inlet;
#X obj 516 119 outlet;
#X text 150 5 bang \, RT \, PT \, state;
#X obj 433 -242 f;
#X obj 456 -209 select 0 1 2 3 4;
#X obj 438 -282 r \$0-state;
#X obj 397 -305 t b;
#X msg 384 -211 NB 0 0 0;
#X obj 484 -369 select 29;
#X text 487 -336 RECORD TO OD;
#X msg 416 -176 NB 1 1 2;
#X msg 444 -143 NB 1 1 2;
#X msg 479 -95 NB 0 1 3;
#X msg 557 -68 NB 0 0 4;
#X text 469 -405 T_MR_FROM;
#X text 535 -309 if MULTI-ON;
#X obj 646 -306 t b;
#X obj 903 -222 f;
#X obj 926 -189 select 0 1 2 3 4;
#X obj 908 -262 r \$0-state;
#X obj 867 -285 t b;
#X msg 900 -84 NB 1 1 2;
#X msg 928 -51 NB 1 1 2;
#X text 733 -401 force record;
#X text 940 -395 force od;
#X obj 733 -370 select 30;
#X obj 954 -349 select 34;
#X msg 674 -84 RB 1 0 1;
#X msg 963 -3 NB 1 1 2;
#X msg 851 -120 RB 1 0 1;
#X msg 995 54 PB 1 1 2;
#X obj 692 -181 f;
#X obj 694 -155 select 1;
#X obj 718 -210 r OVERWRITE;
#X obj 688 -116 t b;
#X connect 0 0 8 0;
#X connect 0 0 25 0;
#X connect 0 0 26 0;
#X connect 3 0 4 0;
#X connect 4 0 7 0;
#X connect 4 1 10 0;
#X connect 4 2 11 0;
#X connect 4 3 12 0;
#X connect 4 4 13 0;
#X connect 5 0 3 1;
#X connect 6 0 3 0;
#X connect 7 0 1 0;
#X connect 8 0 6 0;
#X connect 10 0 1 0;
#X connect 11 0 1 0;
#X connect 12 0 1 0;
#X connect 13 0 1 0;
#X connect 16 0 31 0;
#X connect 17 0 18 0;
#X connect 18 0 29 0;
#X connect 18 1 21 0;
#X connect 18 2 22 0;
#X connect 18 3 28 0;
#X connect 18 4 30 0;
#X connect 19 0 17 1;
#X connect 20 0 17 0;
#X connect 21 0 1 0;
#X connect 22 0 1 0;
#X connect 25 0 16 0;
#X connect 26 0 16 0;
#X connect 27 0 1 0;
#X connect 28 0 1 0;
#X connect 29 0 1 0;
#X connect 30 0 1 0;
#X connect 31 0 32 0;
#X connect 32 0 34 0;
#X connect 32 1 20 0;
#X connect 33 0 31 1;
#X connect 34 0 27 0;
#X restore 18 130 pd mode_com;
#N canvas 207 154 450 533 Q1_START 0;
#X obj 224 1 r \$0-QB;
#X obj 176 308 r LL0;
#X obj 237 309 r LL1;
#X obj 288 307 r LL2;
#X obj 348 306 r LL3;
#X obj 183 341 f;
#X obj 232 339 f;
#X obj 284 337 f;
#X obj 340 335 f;
#X obj 235 419 s \$0-LENGTH;
#X obj 214 258 select 0 1 2 3;
#X obj 230 36 t b b b b;
#X obj 223 217 f;
#X obj 244 181 r \$0-LOOP-ID;
#X obj 84 120 s \$0-new_cycle;
#X connect 0 0 11 0;
#X connect 1 0 5 1;
#X connect 2 0 6 1;
#X connect 3 0 7 1;
#X connect 4 0 8 1;
#X connect 5 0 9 0;
#X connect 6 0 9 0;
#X connect 7 0 9 0;
#X connect 8 0 9 0;
#X connect 10 0 5 0;
#X connect 10 1 6 0;
#X connect 10 2 7 0;
#X connect 10 3 8 0;
#X connect 11 0 14 0;
#X connect 11 1 12 0;
#X connect 12 0 10 0;
#X connect 13 0 12 1;
#X restore 389 269 pd Q1_START;
#N canvas 78 111 965 584 FADE_IN 0;
#X obj 76 18 inlet;
#X obj 191 67 select 55;
#X text 447 391 fade in;
#X obj 345 412 outlet;
#X obj 235 166 f;
#X obj 246 198 select 0 1 2 3 4;
#X obj 262 126 r \$0-state;
#X msg 99 202 NB 0 0 0;
#X text 283 293 bang \, RT \, PT \, state;
#X msg 138 243 SB 0 1 3;
#X msg 158 270 NB 0 1 3;
#X msg 208 335 PB 0 1 3;
#X obj 218 104 tgl 17 0 empty empty empty 17 7 0 10 -262144 -1 -1 0
1;
#X msg 171 300 PB 0 1 3;
#X floatatom 293 156 5 0 0 0 - - -, f 5;
#X obj 487 97 s \$1-FADING_OUT;
#X msg 476 67 0;
#X text 527 143 1 = fading out;
#X text 526 174 0 = fading in;
#X text 528 210 2 = stopped;
#X msg 551 55 2;
#X obj 557 24 r CLEAR;
#X obj 403 132 s \$0-FI-B;
#X obj 665 120 f;
#X obj 667 152 select 2;
#X obj 670 188 t b;
#X obj 661 255 s \$0-QFADE;
#X obj 68 149 delay 2;
#X msg 664 224 0;
#X obj 690 76 r \$1-FADING_OUT;
#X obj 19 70 t b b b b b;
#X obj 763 235 tgl 15 0 empty empty empty 17 7 0 10 -262144 -1 -1 0
1;
#X obj 129 47 spigot;
#X obj 626 344 r \$0-LOOP-ID;
#X obj 545 356 r L_TARGET;
#X obj 593 400 ==;
#X connect 0 0 32 0;
#X connect 1 0 12 0;
#X connect 1 0 30 0;
#X connect 4 0 5 0;
#X connect 5 0 7 0;
#X connect 5 1 9 0;
#X connect 5 2 10 0;
#X connect 5 3 13 0;
#X connect 5 4 11 0;
#X connect 6 0 4 1;
#X connect 6 0 14 0;
#X connect 7 0 3 0;
#X connect 9 0 3 0;
#X connect 10 0 3 0;
#X connect 11 0 3 0;
#X connect 13 0 3 0;
#X connect 16 0 15 0;
#X connect 20 0 15 0;
#X connect 21 0 20 0;
#X connect 23 0 24 0;
#X connect 24 0 25 0;
#X connect 24 0 31 0;
#X connect 25 0 28 0;
#X connect 27 0 4 0;
#X connect 28 0 26 0;
#X connect 29 0 23 1;
#X connect 30 0 22 0;
#X connect 30 0 27 0;
#X connect 30 2 16 0;
#X connect 30 4 23 0;
#X connect 32 0 1 0;
#X connect 33 0 35 1;
#X connect 34 0 35 0;
#X connect 35 0 32 1;
#X restore 285 142 pd FADE_IN;
#N canvas 333 117 947 572 FADE_OUT 0;
#X obj 191 24 inlet;
#X obj 350 457 outlet;
#X obj 240 211 f;
#X obj 251 243 select 0 1 2 3 4;
#X obj 245 171 r \$0-state;
#X msg 104 247 NB 0 0 0;
#X msg 213 380 NB 0 0 4;
#X text 288 338 bang \, RT \, PT \, state;
#X msg 143 288 SB 0 0 4;
#X msg 164 315 NB 0 0 4;
#X msg 176 345 NB 0 0 4;
#X obj 191 67 select 56;
#X text 239 41 fade out;
#X obj 511 170 f;
#X obj 516 130 r \$0-state;
#X msg 521 247 SB 0 1 3;
#X obj 522 202 select 1 2;
#X msg 533 281 NB 0 1 3;
#X msg 630 101 1;
#X text 657 192 1 = fading out;
#X text 656 223 0 = fading in;
#X text 658 259 2 = stopped;
#X obj 635 143 s \$1-FADING_OUT;
#X obj 393 175 s \$0-FO-B;
#X obj 49 109 r \$0-FO_DONE;
#X obj 778 74 f;
#X obj 780 106 select 2;
#X obj 783 142 t b;
#X obj 774 209 s \$0-QFADE;
#X obj 190 96 t b b b b;
#X obj 803 30 r \$1-FADING_OUT;
#X msg 777 178 1;
#X connect 0 0 11 0;
#X connect 2 0 3 0;
#X connect 3 0 5 0;
#X connect 3 1 8 0;
#X connect 3 2 9 0;
#X connect 3 3 10 0;
#X connect 3 4 6 0;
#X connect 4 0 2 1;
#X connect 5 0 1 0;
#X connect 6 0 1 0;
#X connect 8 0 1 0;
#X connect 9 0 1 0;
#X connect 10 0 1 0;
#X connect 11 0 29 0;
#X connect 13 0 16 0;
#X connect 14 0 13 1;
#X connect 15 0 1 0;
#X connect 16 0 15 0;
#X connect 16 1 17 0;
#X connect 17 0 1 0;
#X connect 18 0 22 0;
#X connect 24 0 2 0;
#X connect 25 0 26 0;
#X connect 26 0 27 0;
#X connect 27 0 31 0;
#X connect 29 0 13 0;
#X connect 29 1 23 0;
#X connect 29 2 18 0;
#X connect 29 3 25 0;
#X connect 30 0 25 1;
#X connect 31 0 28 0;
#X restore 277 175 pd FADE_OUT;
#N canvas 536 249 450 325 TRACK_ID_TOGGLES 0;
#X obj 121 36 f \$1;
#X obj 102 72 select 0 4 8 12;
#X obj 104 2 loadbang;
#X msg 117 131 1;
#X msg 208 102 1;
#X obj 301 62 expr $f1 / 4;
#X obj 301 90 i;
#X obj 58 41 bng 15 250 50 0 empty empty empty 17 7 0 10 -262144 -1
-1;
#X msg 162 142 0;
#X obj 25 73 r CLEAR;
#X msg 55 179 1;
#X obj 51 248 s \$0-QFADE;
#X msg 244 108 0;
#X obj 123 185 s \$0-T0-T;
#X obj 219 141 s \$0-T1P-T;
#X obj 302 133 s \$0-LOOP-ID;
#X msg 206 21 r CLEAR;
#X connect 0 0 1 0;
#X connect 0 0 5 0;
#X connect 1 0 3 0;
#X connect 1 0 12 0;
#X connect 1 1 3 0;
#X connect 1 1 12 0;
#X connect 1 2 3 0;
#X connect 1 2 12 0;
#X connect 1 3 3 0;
#X connect 1 3 12 0;
#X connect 1 4 4 0;
#X connect 1 4 8 0;
#X connect 2 0 0 0;
#X connect 3 0 13 0;
#X connect 4 0 14 0;
#X connect 5 0 6 0;
#X connect 6 0 15 0;
#X connect 7 0 0 0;
#X connect 8 0 13 0;
#X connect 9 0 0 0;
#X connect 9 0 10 0;
#X connect 10 0 11 0;
#X connect 12 0 14 0;
#X connect 16 0 0 0;
#X restore 551 490 pd TRACK_ID_TOGGLES;
#X text 604 439 MSC;
#N canvas 526 66 481 629 RECORD_STOP 0;
#X obj 126 201 timer;
#X obj 74 71 r \$0-SB;
#X obj 67 165 r \$0-RB;
#X text 35 32 new loop timer;
#X obj 195 155 s MB;
#X obj 189 87 spigot;
#X obj 130 237 s \$0-SAMP_LENGTH;
#X text 163 16 if track 0 \, send the first MB for the loop;
#X obj 76 107 t b b;
#X obj 248 56 r \$0-T0-T;
#X obj 193 118 f \$1;
#X connect 0 0 6 0;
#X connect 1 0 8 0;
#X connect 2 0 0 0;
#X connect 5 0 10 0;
#X connect 8 0 0 1;
#X connect 8 1 5 0;
#X connect 9 0 5 1;
#X connect 10 0 4 0;
#X restore 267 296 pd RECORD_STOP;
#N canvas 521 66 398 629 PLAY_FIRST_TIME 0;
#N canvas 45 42 1211 654 SET-LENGTH 0;
#X obj 330 432 s LL0;
#X obj 377 432 s LL1;
#X obj 426 428 s LL2;
#X obj 472 430 s LL3;
#X obj 374 387 route 0 1 2 3;
#X obj 318 355 pack f f;
#X obj 728 283 r LL0;
#X obj 788 285 r LL1;
#X obj 842 284 r LL2;
#X obj 890 283 r LL3;
#X obj 725 318 f;
#X obj 774 316 f;
#X obj 826 314 f;
#X obj 882 312 f;
#X obj 749 519 s \$0-LENGTH;
#X obj 413 502 s \$0-LENGTH;
#X obj 679 400 i;
#X floatatom 584 516 10 0 0 0 - - -, f 10;
#X text 581 489 x Measures;
#X text 572 541 (rounded up);
#X obj 718 445 expr $f1 * $f2;
#X obj 756 235 select 0 1 2 3;
#X obj 273 527 spigot;
#X obj 316 503 r Q1T;
#X obj 273 565 s SHADOW;
#X obj 148 35 r \$0-SAMP_LENGTH;
#X obj 754 203 f;
#X obj 312 200 spigot;
#X obj 717 66 spigot;
#X obj 809 67 tgl 15 0 empty empty empty 17 7 0 10 -262144 -1 -1 0
1;
#X obj 390 196 r \$0-T0-T;
#X obj 730 24 r \$0-T1P-T;
#X obj 821 348 t f f f;
#X obj 873 474 s \$0-M-LENGTH;
#X obj 650 434 t f f;
#X obj 739 390 expr ($f1 / $f2) +1;
#X obj 55 106 outlet;
#X floatatom 351 297 5 0 0 0 - - -, f 5;
#X obj 294 312 t b f;
#X obj 306 233 t f b;
#X obj 718 102 t f f b;
#X text 388 435 SAMP LENGTH OUT;
#X obj 331 147 t f f f;
#X obj 307 278 f;
#X obj 363 240 r \$0-LOOP-ID;
#X floatatom 770 365 5 0 0 0 - - -, f 5;
#X floatatom 697 537 5 0 0 0 - - -, f 5;
#X floatatom 816 485 5 0 0 0 - - -, f 5;
#X floatatom 684 293 5 0 0 0 - - -, f 5;
#X obj 763 165 r \$0-LOOP-ID;
#X obj 129 208 *;
#X obj 145 176 samplerate~;
#X obj 127 232 / 1000;
#X obj 129 257 intoblocks;
#X obj 115 281 f;
#X obj 123 132 t b f b;
#X obj 119 70 t f f;
#X connect 4 0 0 0;
#X connect 4 0 15 0;
#X connect 4 1 1 0;
#X connect 4 1 15 0;
#X connect 4 2 2 0;
#X connect 4 2 15 0;
#X connect 4 3 3 0;
#X connect 4 3 15 0;
#X connect 5 0 4 0;
#X connect 6 0 10 1;
#X connect 7 0 11 1;
#X connect 7 0 45 0;
#X connect 8 0 12 1;
#X connect 9 0 13 1;
#X connect 10 0 32 0;
#X connect 11 0 32 0;
#X connect 12 0 32 0;
#X connect 13 0 32 0;
#X connect 16 0 34 0;
#X connect 20 0 14 0;
#X connect 20 0 46 0;
#X connect 21 0 10 0;
#X connect 21 1 11 0;
#X connect 21 2 12 0;
#X connect 21 3 13 0;
#X connect 22 0 24 0;
#X connect 23 0 22 1;
#X connect 25 0 56 0;
#X connect 26 0 21 0;
#X connect 26 0 48 0;
#X connect 27 0 39 0;
#X connect 28 0 40 0;
#X connect 30 0 27 1;
#X connect 31 0 28 1;
#X connect 31 0 29 0;
#X connect 32 0 35 1;
#X connect 32 1 20 1;
#X connect 32 1 47 0;
#X connect 32 2 33 0;
#X connect 34 0 17 0;
#X connect 34 1 20 0;
#X connect 35 0 16 0;
#X connect 38 0 22 0;
#X connect 38 1 5 0;
#X connect 39 1 43 0;
#X connect 40 1 35 0;
#X connect 40 2 26 0;
#X connect 42 0 27 0;
#X connect 42 1 28 0;
#X connect 42 2 5 1;
#X connect 43 0 37 0;
#X connect 43 0 38 0;
#X connect 44 0 43 1;
#X connect 49 0 26 1;
#X connect 50 0 52 0;
#X connect 51 0 50 1;
#X connect 52 0 53 0;
#X connect 53 0 54 1;
#X connect 54 0 42 0;
#X connect 55 0 54 0;
#X connect 55 1 50 0;
#X connect 55 2 51 0;
#X connect 56 0 36 0;
#X connect 56 1 55 0;
#X restore 6 15 pd SET-LENGTH;
#X obj 97 255 delay;
#X obj 295 67 r \$0-LENGTH;
#X obj 158 159 s \$0-BOUT;
#X text 113 16 SAMP LENGTH OUT;
#X obj 208 123 s \$0-BIN;
#X msg 144 133 0;
#X text 163 250 SILENCE TIME;
#X obj 20 57 t b b f b b;
#X obj 183 97 expr $f2 / 48;
#X text 51 416 DONT START RECORDING UNTIL END OF LENGTH;
#X obj 140 186 s \$1-BOUT;
#X obj 112 210 expr ($f2 /48) - $f1;
#X obj 107 372 s \$0-new_cycle;
#X connect 0 0 8 0;
#X connect 1 0 13 0;
#X connect 2 0 9 1;
#X connect 2 0 12 1;
#X connect 6 0 3 0;
#X connect 6 0 11 0;
#X connect 8 1 1 0;
#X connect 8 2 12 0;
#X connect 8 3 6 0;
#X connect 8 4 9 0;
#X connect 9 0 5 0;
#X connect 12 0 1 1;
#X restore 268 327 pd PLAY_FIRST_TIME;
#N canvas 120 242 450 325 mixer 0;
#X obj 36 23 inlet~;
#X obj 212 33 inlet~;
#X obj 125 215 outlet~;
#X obj 129 137 +~;
#N canvas 189 238 298 280 limiter 0;
#X obj 24 22 inlet~;
#X msg 121 85 limit 100;
#X obj 121 21 loadbang;
#X obj 24 169 *~;
#X obj 24 200 outlet~;
#X obj 121 113 limiter~ 10;
#X obj 23 60 z~ 64;
#X connect 0 0 5 0;
#X connect 0 0 6 0;
#X connect 1 0 5 0;
#X connect 2 0 1 0;
#X connect 3 0 4 0;
#X connect 5 0 3 1;
#X connect 6 0 3 0;
#X restore 124 182 pd limiter;
#X connect 0 0 3 0;
#X connect 1 0 3 1;
#X connect 3 0 4 0;
#X connect 4 0 2 0;
#X restore 422 142 pd mixer;
#N canvas 133 66 968 629 BUFFER-IN 0;
#X text 13 45 adc in;
#X obj 34 549 outlet~;
#X obj 374 146 select 0;
#X obj 64 266 *~;
#X obj 375 114 r \$0-RT;
#X obj 199 105 delay 5;
#X obj 272 64 r LATCOMP;
#X msg 157 126 1;
#X obj 436 379 r LATCATCHUP;
#X obj 308 178 pack 0 7;
#X obj 93 228 line~;
#X obj 176 32 r \$0-RT;
#X obj 175 64 select 1;
#X obj 342 407 expr $f1 + $f2;
#X obj 354 375 r \$0-BIN;
#X obj 126 460 delread4~ \$0-tom;
#X floatatom 361 442 10 0 0 0 - - -, f 10;
#X obj 22 92 r~ mic;
#X obj 18 358 delwrite~ \$0-tom 100000;
#X obj 156 242 bng 15 250 50 0 empty empty empty 17 7 0 10 -262144
-1 -1;
#X obj 142 316 snapshot~;
#X obj 300 255 vsl 15 128 0 1 0 0 empty empty empty 0 -9 0 10 -262144
-1 -1 0 1;
#X obj 153 282 metro 50;
#X obj 265 96 expr $f1;
#X obj 173 175 pack 1 20;
#X connect 2 0 9 0;
#X connect 3 0 18 0;
#X connect 4 0 2 0;
#X connect 5 0 7 0;
#X connect 6 0 23 0;
#X connect 7 0 24 0;
#X connect 8 0 13 1;
#X connect 9 0 10 0;
#X connect 10 0 3 1;
#X connect 10 0 20 0;
#X connect 11 0 12 0;
#X connect 12 0 5 0;
#X connect 13 0 15 0;
#X connect 13 0 16 0;
#X connect 14 0 13 0;
#X connect 15 0 1 0;
#X connect 17 0 3 0;
#X connect 19 0 22 0;
#X connect 20 0 21 0;
#X connect 22 0 20 0;
#X connect 23 0 5 1;
#X connect 24 0 10 0;
#X restore 361 107 pd BUFFER-IN;
#N canvas 179 99 721 654 BUFFER-OUT 0;
#X obj 107 61 inlet~;
#X obj 58 394 outlet~;
#X obj 12 63 inlet~;
#X text 5 23 Buffer IN;
#X text 114 22 Array in;
#X obj 108 190 r \$0-BOUT;
#X obj 67 137 delwrite~ \$0-jerry 100000;
#X obj 46 254 delread4~ \$0-jerry 5;
#X obj 96 221 expr $f1 + 5;
#X connect 0 0 6 0;
#X connect 2 0 6 0;
#X connect 5 0 8 0;
#X connect 7 0 1 0;
#X connect 8 0 7 0;
#X restore 463 239 pd BUFFER-OUT;
#X text 361 81 audio in;
#X text 553 303 audio out;
#X obj 119 291 table \$0-tape 1e+07;
#N canvas 404 92 870 645 fade 0;
#X floatatom 64 -32 5 0 0 0 - - -, f 5;
#X obj 83 -57 r \$1-FADING_OUT;
#X obj 118 -27 select 0 1;
#X msg 91 6 1;
#X msg 206 10 1;
#X msg 236 11 0;
#X msg 127 7 0;
#X text 239 44 fading out;
#X obj 65 44 s \$0-FI-T;
#X obj 202 38 s \$0-FO-T;
#X obj 301 -63 r \$0-FO-B;
#X obj 309 30 delay;
#X obj 410 -42 r FADE_TIME;
#X obj 392 48 spigot;
#X obj 447 39 r \$0-FO-T;
#X obj 411 4 t b f;
#X msg 342 150 2;
#X obj 325 101 spigot;
#X obj 380 92 r \$0-FO-T;
#X obj 326 127 t b b;
#X obj 316 216 s \$0-FO_DONE;
#X obj 556 24 delay;
#X obj 657 -48 r FADE_TIME;
#X obj 639 42 spigot;
#X obj 658 -2 t b f;
#X msg 589 144 2;
#X obj 572 95 spigot;
#X obj 548 -69 r \$0-FI-B;
#X obj 694 33 r \$0-FI-T;
#X obj 627 86 r \$0-FI-T;
#X obj 419 188 s \$1-FADING_OUT;
#X obj 603 177 s \$1-FADING_OUT;
#X obj 388 288 s \$0-QFADE;
#X msg 383 259 1;
#X obj 14 60 r \$0-PT;
#X obj 13 91 select 1;
#X obj 15 116 spigot;
#X obj 87 99 r \$0-FO-T;
#X obj 18 141 spigot;
#X obj 77 124 r \$0-T0-T;
#X obj 62 292 f \$1;
#X obj 100 258 expr $f1 / 4;
#X obj 34 264 t b b;
#X obj 109 301 s LOOP_FADE;
#X obj 28 171 spigot;
#X obj 109 150 r L_TARGET;
#X obj 132 221 tgl 15 0 empty empty empty 17 7 0 10 -262144 -1 -1 1
1;
#X obj 162 182 expr $f1 * 4;
#X obj 211 153 f \$1;
#X obj 232 118 loadbang;
#X obj 269 136 r CLEAR;
#X obj 120 181 ==;
#X obj 80 335 r \$0-RT;
#X obj 98 364 select 1;
#X obj 100 389 spigot;
#X obj 172 372 r \$0-FO-T;
#X obj 103 414 spigot;
#X obj 162 397 r \$0-T0-T;
#X msg 168 459 2;
#X msg 239 461 0;
#X obj 131 490 s \$1-FADING_OUT;
#X obj 270 490 s \$0-FO-T;
#X obj 71 482 s \$0-QFADE;
#X msg 71 457 1;
#X obj 375 416 f \$1;
#X obj 206 425 t b b b b b;
#X obj 323 455 s CHANGEFOCUS;
#X connect 0 0 2 0;
#X connect 1 0 0 0;
#X connect 2 0 3 0;
#X connect 2 0 5 0;
#X connect 2 1 6 0;
#X connect 2 1 4 0;
#X connect 2 2 6 0;
#X connect 2 2 5 0;
#X connect 3 0 8 0;
#X connect 4 0 9 0;
#X connect 5 0 9 0;
#X connect 6 0 8 0;
#X connect 10 0 11 0;
#X connect 11 0 17 0;
#X connect 12 0 15 0;
#X connect 13 0 11 0;
#X connect 14 0 13 1;
#X connect 15 0 13 0;
#X connect 15 1 11 1;
#X connect 16 0 30 0;
#X connect 17 0 19 0;
#X connect 18 0 17 1;
#X connect 19 0 20 0;
#X connect 19 1 16 0;
#X connect 19 1 33 0;
#X connect 21 0 26 0;
#X connect 22 0 24 0;
#X connect 23 0 21 0;
#X connect 24 0 23 0;
#X connect 24 1 21 1;
#X connect 25 0 31 0;
#X connect 26 0 25 0;
#X connect 26 0 33 0;
#X connect 27 0 21 0;
#X connect 28 0 23 1;
#X connect 29 0 26 1;
#X connect 33 0 32 0;
#X connect 34 0 35 0;
#X connect 35 0 36 0;
#X connect 36 0 38 0;
#X connect 37 0 36 1;
#X connect 38 0 44 0;
#X connect 39 0 38 1;
#X connect 40 0 41 0;
#X connect 41 0 43 0;
#X connect 42 1 40 0;
#X connect 44 0 42 0;
#X connect 45 0 51 0;
#X connect 47 0 51 1;
#X connect 48 0 47 0;
#X connect 49 0 48 0;
#X connect 50 0 48 0;
#X connect 51 0 44 1;
#X connect 51 0 46 0;
#X connect 52 0 53 0;
#X connect 53 0 54 0;
#X connect 54 0 56 0;
#X connect 55 0 54 1;
#X connect 56 0 65 0;
#X connect 57 0 56 1;
#X connect 58 0 60 0;
#X connect 59 0 61 0;
#X connect 63 0 62 0;
#X connect 65 0 63 0;
#X connect 65 1 58 0;
#X connect 65 2 59 0;
#X connect 65 3 66 0;
#X connect 65 4 64 0;
#X restore 665 281 pd fade;
#N canvas 0 0 450 300 SHADOW 0;
#X obj 151 -21 f;
#X obj 162 11 select 0 1 2 3 4;
#X obj 156 -61 r \$0-state;
#X obj 115 -84 t b;
#X obj 159 -146 select 42;
#X text 177 -111 SHADOW;
#X msg 119 105 QB 0 1 3;
#X obj 10 -135 inlet;
#X obj 2 116 outlet;
#X connect 0 0 1 0;
#X connect 1 0 6 0;
#X connect 1 1 6 0;
#X connect 1 2 6 0;
#X connect 1 3 6 0;
#X connect 1 4 6 0;
#X connect 2 0 0 1;
#X connect 3 0 0 0;
#X connect 4 0 3 0;
#X connect 6 0 8 0;
#X connect 7 0 4 0;
#X restore 14 159 pd SHADOW;
#X connect 0 0 1 0;
#X connect 0 0 17 0;
#X connect 0 0 18 0;
#X connect 0 0 19 0;
#X connect 0 0 24 0;
#X connect 0 0 26 0;
#X connect 0 0 28 0;
#X connect 0 0 29 0;
#X connect 0 0 41 0;
#X connect 1 0 5 0;
#X connect 2 0 3 0;
#X connect 2 0 36 1;
#X connect 3 0 34 1;
#X connect 6 0 3 1;
#X connect 8 0 16 2;
#X connect 17 0 5 0;
#X connect 18 0 5 0;
#X connect 19 0 5 0;
#X connect 21 0 16 1;
#X connect 24 0 5 0;
#X connect 26 0 5 0;
#X connect 28 0 5 0;
#X connect 29 0 5 0;
#X connect 34 0 4 0;
#X connect 35 0 34 0;
#X connect 35 0 36 0;
#X connect 36 0 16 0;
#X connect 41 0 25 0;
